<svg xmlns="http://www.w3.org/2000/svg" viewBox="0 0 48 48">
  <path d="M19.6 40.4v-3.7c-6.1 1.3-7.4-2.9-7.4-2.9-1-2.5-2.4-3.2-2.4-3.2-2-1.4.2-1.3.2-1.3 2.2.2 3.4 2.3 3.4 2.3 2 3.4 5.1 2.4 6.4 1.8.2-1.4.8-2.4 1.4-2.9-4.9-.6-10-2.4-10-10.9 0-2.4.9-4.4 2.3-5.9-.2-.6-1-2.8.2-5.8 0 0 1.8-.6 6 2.3 1.8-.5 3.6-.7 5.5-.7s3.8.3 5.5.7c4.2-2.8 6-2.3 6-2.3 1.2 3 .4 5.3.2 5.8 1.4 1.5 2.3 3.5 2.3 5.9 0 8.5-5.1 10.3-10 10.9.8.7 1.5 2 1.5 4.1v6H19.6z" fill-rule="evenodd" clip-rule="evenodd" fill="#3e93d0"/>
</svg>
