<?xml version="1.0" encoding="utf-8"?>
<svg viewBox="0 0 500 500" xmlns="http://www.w3.org/2000/svg">
  <g transform="matrix(0.841868, 0, 0, 0.841868, 13.633337, 43.172646)" style="">
    <title>tailwind</title>
    <path d="M 278.111 172.597 C 235.261 173.959 222.525 204.569 219.607 221.151 C 223.41 215.005 235.394 201.518 253.037 201.518 C 273.6 201.518 289.255 224.469 298.807 231.632 C 310.411 240.336 333.73 251.828 364.341 242.511 C 388.752 235.081 400.072 209.168 402.549 196.875 C 390.742 212.927 372.833 222.568 350.677 211.203 C 335.421 203.375 324.013 171.138 278.111 172.597 Z" fill="#07B6D5" style="">
      <title>top</title>
    </path>
    <path d="M 217.484 245.429 C 174.635 246.791 161.899 277.401 158.98 293.983 C 162.783 287.837 174.767 274.35 192.411 274.35 C 212.974 274.35 228.628 297.301 238.18 304.464 C 249.784 313.167 273.103 324.659 303.715 315.342 C 328.125 307.914 339.446 282 341.922 269.707 C 330.115 285.759 312.205 295.4 290.051 284.034 C 274.795 276.207 263.385 243.97 217.484 245.429 Z" fill="#07B6D5" style="">
      <title>bottom</title>
    </path>
  </g>
  <g transform="matrix(0.8804, 0, 0, 0.8804, 29.9, 29.899576)" style="">
    <title>brackets</title>
    <path style="paint-order: fill; stroke: rgb(7, 182, 213); fill: none; stroke-linecap: round; stroke-width: 24px;" d="M 371.785 81.564 C 371.785 81.564 426.561 77.062 425.81 130.337 C 425.059 183.612 422.059 246.642 479.086 248.893 M 371.785 418.436 C 371.785 418.436 426.561 422.938 425.81 369.663 C 425.059 316.388 422.059 253.358 479.086 251.107">
      <title>right</title>
    </path>
    <path style="paint-order: fill; stroke: rgb(7, 182, 213); fill: none; stroke-linecap: round; stroke-width: 24px;" d="M 20.914 418.437 C 20.914 418.437 75.69 422.939 74.939 369.664 C 74.188 316.389 71.188 253.359 128.215 251.108 M 20.914 81.565 C 20.914 81.565 75.69 77.063 74.939 130.338 C 74.188 183.613 71.188 246.643 128.215 248.894" transform="matrix(-1, 0, 0, -1, 149.128994, 500.001984)">
      <title>left</title>
    </path>
  </g>
</svg>